ply
format ascii 1.0
element vertex 100
property float x
property float y
property float z
element face 50
property list uchar int vertex_indices
end_header
-4.884387 9.524017 0.000000
4.646369 9.545994 0.402977
-6.562613 -2.313867 6.368155
0.148000 -8.861732 2.349039
5.249965 -0.379447 2.798362
4.360117 -4.733153 0.000000
7.089795 -8.041574 1.174630
6.003999 -3.194836 5.649833
-1.252981 -9.173109 2.538545
-6.869588 -7.512305 2.558425
9.123748 -4.419804 0.000000
7.753623 8.566270 4.901689
3.717346 0.236448 5.922916
1.262011 -8.517302 2.270809
7.972095 -0.343801 4.438076
7.249568 -5.767948 0.000000
-9.158671 8.809497 5.140420
-4.217935 4.000203 5.507348
-0.578542 -8.961208 0.389272
6.345711 -5.499616 5.003864
-5.672214 9.885573 0.000000
-8.313102 8.130554 0.449530
1.797855 6.191584 5.902963
-0.220657 -9.026781 1.599122
3.008988 -0.451428 3.926234
9.946215 -2.994043 0.000000
-9.755691 8.251250 3.321085
-3.114844 8.799652 6.127446
0.081421 -8.504901 0.775770
5.115817 -7.951022 3.408226
8.695143 5.757199 0.000000
-2.060906 -9.648478 3.304990
2.370805 -8.821693 5.701552
0.203858 -10.352998 2.224340
5.440912 6.725798 0.559727
8.794405 -8.647600 0.000000
-0.518876 9.680502 0.421867
-9.635379 -9.501045 6.011270
1.246387 -10.181434 0.373831
1.096750 -4.251270 4.016176
8.992708 5.320668 0.000000
0.391721 -9.664639 1.097419
-8.633042 3.119062 5.551952
1.569926 -8.771114 2.856602
-2.977813 -0.221467 4.079297
-5.144420 0.836976 0.000000
3.189346 9.957618 4.468220
-7.637383 -0.493331 6.088771
-1.413507 -9.420085 0.852017
-6.098759 0.192671 0.910982
1.810748 -6.606061 0.000000
-6.095168 -9.792570 0.157256
0.439948 -3.597905 5.725077
-0.113589 -8.394951 2.745832
-3.148022 -5.532102 3.960773
1.639974 -5.979677 0.000000
5.205916 9.037861 3.920371
-2.813219 -1.218049 5.680342
1.026063 -10.107471 2.334908
4.768126 3.945616 0.106825
-4.537336 -0.633245 0.000000
8.384442 8.751212 5.250140
-6.731414 -2.574390 5.552282
0.969957 -10.123368 0.771060
4.403732 0.555467 0.076850
-9.955296 0.213213 0.000000
-3.900890 8.360623 3.681564
-5.431271 1.844143 5.879266
-1.253015 -10.154738 0.710582
-7.522686 -3.069969 4.960751
6.627243 -2.559925 0.000000
1.347211 9.657475 1.417741
-4.072250 -3.964291 5.540870
-0.741249 -8.305216 2.735963
-6.245834 -0.671063 2.097419
-0.212816 1.094391 0.000000
-9.594825 9.684484 5.841984
3.068096 3.209045 6.027980
-0.662906 -10.127556 1.752190
-7.280938 5.192041 2.315014
-1.704916 -3.456583 0.000000
-6.501661 -8.302616 0.993189
3.170550 9.837907 5.735475
1.622470 -9.803458 1.943700
-7.352017 -0.069536 3.600135
0.726396 -5.243292 0.000000
6.569939 9.940273 2.755177
2.718385 5.808265 5.741489
1.457802 -9.799498 2.327492
-6.206412 -3.385813 2.934910
0.498442 7.008624 0.000000
-7.855783 -8.542776 2.145589
-0.421632 -0.121805 6.356195
1.082237 -10.452871 1.365065
1.889181 -0.633671 0.718549
-2.050518 -1.766886 0.000000
-6.245682 9.512614 1.928404
1.779746 0.314604 6.377427
-1.511940 -10.214342 0.900959
-1.100561 -3.223324 4.197529
3 96 98 99
3 8 11 12
3 93 97 98
3 83 86 87
3 2 5 3
3 70 75 74
3 82 84 87
3 53 57 58
3 62 64 66
3 64 69 67
3 49 52 50
3 8 9 12
3 41 46 45
3 13 14 15
3 90 91 92
3 2 5 7
3 67 70 68
3 34 37 36
3 69 74 71
3 24 25 28
3 45 47 48
3 6 9 10
3 23 24 26
3 66 68 69
3 15 19 20
3 75 78 79
3 38 39 40
3 68 72 73
3 97 99 98
3 26 31 32
3 9 10 12
3 64 69 68
3 20 21 24
3 54 59 57
3 49 51 50
3 85 90 86
3 68 70 71
3 83 88 84
3 30 35 36
3 7 12 10
3 57 58 61
3 66 70 71
3 92 97 96
3 96 99 99
3 53 57 54
3 49 52 54
3 7 11 8
3 86 91 88
3 85 88 90
3 71 72 73
